<?xml version="1.0" encoding="iso-8859-1"?>
<!-- Generator: Adobe Illustrator 19.0.0, SVG Export Plug-In . SVG Version: 6.00 Build 0)  -->
<svg version="1.1" id="Capa_1" xmlns="http://www.w3.org/2000/svg" xmlns:xlink="http://www.w3.org/1999/xlink" x="0px" y="0px"
	 viewBox="0 0 464.002 464.002" style="enable-background:new 0 0 464.002 464.002;" xml:space="preserve">
<circle style="fill:#FAFDFF;" cx="224" cy="239.832" r="224"/>
<circle style="fill:#EAF6FD;" cx="224" cy="239.832" r="192"/>
<g>
	<path style="fill:#FCD95F;" d="M400.002,0.17c0,36.77-27.229,64-64,64c36.771,0,64,27.226,64,64c0-36.774,27.229-64,64-64
		C427.231,64.17,400.002,36.94,400.002,0.17z"/>
	<path style="fill:#FCD95F;" d="M32.002,16.17c0,18.385-13.614,32-32,32c18.386,0,32,13.614,32,32c0-18.386,13.614-32,32-32
		C45.617,48.17,32.002,34.555,32.002,16.17z"/>
</g>
<circle style="fill:#D9E3D4;" cx="224" cy="239.832" r="160"/>
<path style="fill:#EDF1EA;" d="M323.839,126.714c62.483,62.483,62.486,163.789,0,226.274
	c-29.545,29.545-67.78,44.943-106.476,46.546c43.134,1.781,86.845-13.614,119.777-46.547c62.483-62.483,62.485-163.79,0-226.274
	c-32.934-32.934-76.651-48.327-119.787-46.543C256.054,81.773,294.29,97.166,323.839,126.714z"/>
<g>
	<path style="fill:#BCC5B8;" d="M159.478,168.708c16.386,0,29.715,13.33,29.715,29.714c0,16.384-13.328,29.714-29.715,29.714
		s-29.715-13.33-29.715-29.714S143.091,168.708,159.478,168.708 M159.478,152.708c-25.215,0-45.715,20.5-45.715,45.714
		s20.5,45.714,45.715,45.714s45.715-20.5,45.715-45.714C205.193,173.208,184.693,152.708,159.478,152.708z"/>
	<path style="fill:#BCC5B8;" d="M285.909,292.994c10.082,0,18.285,8.203,18.285,18.286s-8.203,18.286-18.285,18.286
		c-10.086,0-18.289-8.203-18.289-18.286S275.823,292.994,285.909,292.994 M285.909,276.994c-18.914,0-34.289,15.375-34.289,34.286
		c0,18.911,15.375,34.286,34.289,34.286c18.91,0,34.285-15.375,34.285-34.286C320.194,292.368,304.819,276.994,285.909,276.994z"/>
	<circle style="fill:#BCC5B8;" cx="175.432" cy="311.272" r="11.432"/>
	<circle style="fill:#BCC5B8;" cx="227.792" cy="132.704" r="5.712"/>
	<circle style="fill:#BCC5B8;" cx="239.24" cy="234.136" r="5.712"/>
	<circle style="fill:#BCC5B8;" cx="114.032" cy="277.432" r="5.712"/>
	<circle style="fill:#BCC5B8;" cx="330.672" cy="247.672" r="5.712"/>
	<circle style="fill:#BCC5B8;" cx="205.432" cy="360.952" r="5.712"/>
	<circle style="fill:#BCC5B8;" cx="292.592" cy="171.28" r="20"/>
</g>
<path style="fill:#EDF1EA;" d="M279.022,171.279c0-9.902,7.328-17.751,16.778-19.349c-1.094-0.185-2.082-0.651-3.226-0.651
	c-11.043,0-20,8.955-20,20s8.957,20,20,20c1.145,0,2.133-0.466,3.226-0.651C286.35,189.03,279.022,181.181,279.022,171.279z"/>
<g>
</g>
<g>
</g>
<g>
</g>
<g>
</g>
<g>
</g>
<g>
</g>
<g>
</g>
<g>
</g>
<g>
</g>
<g>
</g>
<g>
</g>
<g>
</g>
<g>
</g>
<g>
</g>
<g>
</g>
</svg>
