<svg id="Capa_1" enable-background="new 0 0 488.354 488.354" height="512" viewBox="0 0 488.354 488.354" width="512" xmlns="http://www.w3.org/2000/svg"><g><path d="m201.162 117.137c-1.893 0-3.755.13-5.587.355-2.622-33.766-30.832-60.355-65.271-60.355-34.445 0-62.658 26.597-65.272 60.371-1.874-.236-3.78-.371-5.718-.371-25.056 0-45.367 20.312-45.367 45.367s20.312 45.367 45.367 45.367h141.847c25.056 0 45.367-20.312 45.367-45.367s-20.31-45.367-45.366-45.367z" fill="#e6e6e6"/><path d="m488.354 298.326h-76.873c-27.132 0-49.127-21.995-49.127-49.127s21.995-49.127 49.127-49.127c2.099 0 4.162.147 6.192.402 2.831-36.573 33.382-65.375 70.681-65.375 0 0-.652 163.227 0 163.227z" fill="#e6e6e6"/><path d="m415.842 325.185c1.198-4.986 1.85-10.184 1.85-15.537 0-36.6-29.67-66.271-66.271-66.271-8.016 0-15.7 1.424-22.812 4.032-11.11-40.365-48.074-70.017-91.969-70.017-52.68 0-95.386 42.706-95.386 95.386 0 .437.011.871.017 1.306-9.06-4.518-19.271-7.074-30.083-7.074-37.287 0-67.514 30.227-67.514 67.514 0 1.829.094 3.636.236 5.429-24.404.917-43.91 20.98-43.91 45.609 0 25.214 20.44 45.655 45.655 45.655h365.945c29.331 0 53.108-23.777 53.108-53.108 0-27.902-21.521-50.761-48.866-52.924z" fill="#d7d7d7"/><path d="m415.842 325.185c1.198-4.986 1.85-10.184 1.85-15.537 0-36.6-29.67-66.271-66.271-66.271-8.016 0-15.7 1.424-22.812 4.032-11.11-40.365-48.074-70.017-91.969-70.017-1.437 0-2.865.038-4.286.1v253.725h179.246c29.331 0 53.108-23.777 53.108-53.108 0-27.902-21.521-50.761-48.866-52.924z" fill="#bebebe"/><g><path d="m351.41 342.243h-30c0-8.271-6.729-15-15-15s-15 6.729-15 15h-30c0-24.813 20.187-45 45-45s45 20.187 45 45z" fill="#9b9b9b"/></g><g><path d="m202.201 372.243h-30c0-8.271-6.729-15-15-15s-15 6.729-15 15h-30c0-24.813 20.187-45 45-45s45 20.187 45 45z" fill="#bebebe"/></g></g></svg>