<?xml version="1.0" encoding="iso-8859-1"?>
<!-- Generator: Adobe Illustrator 19.0.0, SVG Export Plug-In . SVG Version: 6.00 Build 0)  -->
<svg version="1.1" id="Capa_1" xmlns="http://www.w3.org/2000/svg" xmlns:xlink="http://www.w3.org/1999/xlink" x="0px" y="0px"
	 viewBox="0 0 448 448" style="enable-background:new 0 0 448 448;" xml:space="preserve">
<path style="fill:#D9E3D4;" d="M432,192c-52.297,0-94.742-41.841-95.89-93.863C290.67,105.724,256,145.12,256,192.714
	c0,53.019,42.981,96,96,96s96-42.981,96-96c0-0.722-0.094-1.419-0.11-2.137C442.71,191.442,437.426,192,432,192z"/>
<path style="fill:#BFC9BE;" d="M313.427,154.143c7.562,0,13.715,6.152,13.715,13.714s-6.152,13.714-13.715,13.714
	s-13.713-6.152-13.713-13.714S305.865,154.143,313.427,154.143 M313.427,140.429c-15.127,0-27.428,12.3-27.428,27.429
	s12.301,27.429,27.428,27.429c15.129,0,27.43-12.3,27.43-27.429S328.557,140.429,313.427,140.429z"/>
<path style="fill:#BCC5B8;" d="M352,208c-0.026,0-0.05,0-0.078,0c-21.488-28.603-51.942-48.875-86.058-58.182
	C259.61,162.564,256,176.844,256,192c0,53.019,42.981,96,96,96c35.84,0,67.035-19.676,83.523-48.778
	C413.082,219.825,383.922,208,352,208z"/>
<g>
	<path style="fill:#FCD95F;" d="M144,16c0,36.77-27.229,64-64,64c36.771,0,64,27.226,64,64c0-36.774,27.229-64,64-64
		C171.228,80,144,52.77,144,16z"/>
	<path style="fill:#FCD95F;" d="M32,136.752c0,18.385-13.614,32-32,32c18.386,0,32,13.614,32,32c0-18.386,13.614-32,32-32
		C45.614,168.752,32,155.137,32,136.752z"/>
</g>
<g>
	<path style="fill:#B3BDB2;" d="M313.427,195.286c7.646,0,14.557-3.158,19.535-8.218c-3.412-3.162-6.959-6.149-10.621-8.99
		c-2.412,2.103-5.47,3.495-8.914,3.495c-7.562,0-13.713-6.152-13.713-13.714c0-1.433,0.408-2.742,0.817-4.041
		c-4.084-2.218-8.27-4.242-12.535-6.103c-1.26,3.145-1.996,6.554-1.996,10.145C286,182.986,298.301,195.286,313.427,195.286z"/>
	<path style="fill:#B3BDB2;" d="M389.142,228.714c3.782,0,6.858,3.076,6.858,6.857c0,3.781-3.076,6.857-6.858,6.857
		s-6.855-3.075-6.855-6.856C382.287,231.791,385.361,228.714,389.142,228.714 M389.142,215.001c-11.346,0-20.57,9.225-20.57,20.571
		s9.225,20.571,20.57,20.571c11.348,0,20.572-9.225,20.572-20.571S400.49,215.001,389.142,215.001z"/>
	<circle style="fill:#B3BDB2;" cx="361.167" cy="189.258" r="3.432"/>
	<circle style="fill:#B3BDB2;" cx="419.431" cy="204.538" r="3.432"/>
</g>
<path style="fill:#F3F3F3;" d="M352,240c-5.588,0-11.031,0.578-16.355,1.494C313.727,202.435,271.977,176,224,176
	s-89.726,26.434-111.645,65.494C107.031,240.578,101.588,240,96,240c-53.019,0-96,42.981-96,96s42.981,96,96,96h256
	c53.019,0,96-42.981,96-96S405.019,240,352,240z"/>
<path style="fill:#E1E1E1;" d="M352,240c-5.586,0-11.031,0.578-16.355,1.494c-0.098-0.177-0.23-0.332-0.332-0.509
	c10.57,18.62,16.687,40.1,16.687,63.041C352,374.704,294.703,432,224.027,432H352c53.019,0,96-42.981,96-96S405.019,240,352,240z"/>
<g>
</g>
<g>
</g>
<g>
</g>
<g>
</g>
<g>
</g>
<g>
</g>
<g>
</g>
<g>
</g>
<g>
</g>
<g>
</g>
<g>
</g>
<g>
</g>
<g>
</g>
<g>
</g>
<g>
</g>
</svg>
