<svg viewBox="0 0 40 40" fill="currentColor" xmlns="http://www.w3.org/2000/svg">
<path d="M36.7717 11.5748C36.748 6.61417 32.7087 2.58267 27.7402 2.58267C24.8976 2.58267 22.252 3.91338 20.5433 6.16535C19.3543 4.34645 17.3071 3.22834 15.0945 3.22834C13.0709 3.22834 11.1811 4.1496 9.95276 5.71653C9.4252 5.5433 8.88189 5.45669 8.32283 5.45669C6.02362 5.45669 4.01575 6.9685 3.37008 9.11023C1.41732 9.50393 0 11.1968 0 13.2126C0 15.5276 1.91339 17.4173 4.25984 17.4173H6.48819C6.81102 20.315 9.27559 22.5748 12.2598 22.5748H34.1968C37.4016 22.5748 40 19.9685 40 16.7716C40 14.5433 38.748 12.5512 36.7717 11.5748ZM4.25984 16.126C2.62205 16.126 1.29134 14.8189 1.29134 13.2126C1.29134 11.7087 2.44094 10.4646 3.96063 10.315L4.43307 10.2677L4.52756 9.80314C4.88189 8.03149 6.48031 6.74015 8.32283 6.74015C8.87402 6.74015 9.40945 6.85826 9.92126 7.07874L10.4173 7.29921L10.7165 6.84251C11.685 5.37795 13.3228 4.50393 15.0945 4.50393C16.3937 4.50393 17.6142 4.99212 18.5591 5.81889C14.685 5.81889 12.0315 7.98425 11.2047 11.0551C8.66929 11.5118 6.76378 13.5748 6.48819 16.126H4.25984V16.126ZM34.1968 21.2913H12.2598C9.77165 21.2913 7.74016 19.2677 7.74016 16.7716C7.74016 14.4409 9.48819 12.5118 11.8031 12.2756L12.2756 12.2283L12.3701 11.7559C12.9055 9.04724 15.2992 7.08661 18.063 7.08661C18.8898 7.08661 19.6929 7.25984 20.4567 7.60629L20.9606 7.83464L21.2598 7.37007C22.7008 5.17322 25.1181 3.85826 27.7402 3.85826C32.0079 3.85826 35.4803 7.3307 35.4803 11.5984C35.4803 11.6614 35.4409 12.4016 35.4409 12.4016L35.8661 12.5748C37.5906 13.2677 38.7087 14.9134 38.7087 16.7638C38.7087 19.2677 36.685 21.2913 34.1968 21.2913Z" fill="#FFF"/>
<path d="M19.3543 24.6693C19.3543 24.6693 17.4173 27.559 17.4173 28.3858C17.4173 29.4567 18.2835 30.3228 19.3543 30.3228C20.4252 30.3228 21.2913 29.4567 21.2913 28.3858C21.2913 27.559 19.3543 24.6693 19.3543 24.6693ZM19.3543 29.0315C19 29.0315 18.7087 28.7402 18.7087 28.3858C18.7165 28.189 18.9843 27.6299 19.3543 27C19.7244 27.622 19.9921 28.189 20 28.3858C20 28.7402 19.7087 29.0315 19.3543 29.0315Z" fill="#FFF"/>
<path d="M11.6142 24.6693C11.6142 24.6693 9.67716 27.559 9.67716 28.3858C9.67716 29.4567 10.5433 30.3228 11.6142 30.3228C12.685 30.3228 13.5512 29.4567 13.5512 28.3858C13.5512 27.559 11.6142 24.6693 11.6142 24.6693ZM11.6142 29.0315C11.2598 29.0315 10.9685 28.7402 10.9685 28.3858C10.9764 28.189 11.2441 27.6299 11.6142 27C11.9842 27.622 12.252 28.189 12.2598 28.3858C12.2598 28.7402 11.9685 29.0315 11.6142 29.0315Z" fill="#FFF"/>
<path d="M27.0945 24.6693C27.0945 24.6693 25.1575 27.559 25.1575 28.3858C25.1575 29.4567 26.0236 30.3228 27.0945 30.3228C28.1654 30.3228 29.0315 29.4567 29.0315 28.3858C29.0315 27.559 27.0945 24.6693 27.0945 24.6693ZM27.0945 29.0315C26.7402 29.0315 26.4488 28.7402 26.4488 28.3858C26.4567 28.189 26.7244 27.6299 27.0945 27C27.4646 27.622 27.7323 28.189 27.7402 28.3858C27.7402 28.7402 27.4488 29.0315 27.0945 29.0315Z" fill="#FFF"/>
<path d="M34.8425 24.6693C34.8425 24.6693 32.9055 27.559 32.9055 28.3858C32.9055 29.4567 33.7716 30.3228 34.8425 30.3228C35.9134 30.3228 36.7795 29.4567 36.7795 28.3858C36.7795 27.559 34.8425 24.6693 34.8425 24.6693ZM34.8425 29.0315C34.4882 29.0315 34.1968 28.7402 34.1968 28.3858C34.2047 28.189 34.4724 27.6299 34.8425 27C35.2126 27.622 35.4803 28.189 35.4882 28.3858C35.4803 28.7402 35.1968 29.0315 34.8425 29.0315Z" fill="#FFF"/>
<path d="M23.2283 31.7638C23.2283 31.7638 21.2913 34.6614 21.2913 35.4803C21.2913 36.5512 22.1575 37.4173 23.2283 37.4173C24.2992 37.4173 25.1654 36.5512 25.1654 35.4803C25.1654 34.6536 23.2283 31.7638 23.2283 31.7638ZM23.2283 36.126C22.874 36.126 22.5827 35.8347 22.5827 35.4803C22.5905 35.2835 22.8583 34.7244 23.2283 34.0945C23.5984 34.7166 23.8661 35.2835 23.874 35.4803C23.874 35.8425 23.5827 36.126 23.2283 36.126Z" fill="#FFF"/>
<path d="M15.4882 31.7638C15.4882 31.7638 13.5512 34.6614 13.5512 35.4803C13.5512 36.5512 14.4173 37.4173 15.4882 37.4173C16.5591 37.4173 17.4252 36.5512 17.4252 35.4803C17.4252 34.6536 15.4882 31.7638 15.4882 31.7638ZM15.4803 36.126C15.126 36.126 14.8346 35.8347 14.8346 35.4803C14.8425 35.2835 15.1102 34.7244 15.4803 34.0945C15.8504 34.7166 16.1181 35.2835 16.126 35.4803C16.126 35.8425 15.8425 36.126 15.4803 36.126Z" fill="#FFF"/>
<path d="M30.9685 31.7638C30.9685 31.7638 29.0315 34.6614 29.0315 35.4803C29.0315 36.5512 29.8976 37.4173 30.9685 37.4173C32.0394 37.4173 32.9055 36.5512 32.9055 35.4803C32.9055 34.6536 30.9685 31.7638 30.9685 31.7638ZM30.9685 36.126C30.6142 36.126 30.3228 35.8347 30.3228 35.4803C30.3307 35.2835 30.5984 34.7244 30.9685 34.0945C31.3386 34.7166 31.6063 35.2835 31.6142 35.4803C31.6142 35.8425 31.3228 36.126 30.9685 36.126Z" fill="#FFF"/>
</svg>
