<svg id="Capa_1" enable-background="new 0 0 499.531 499.531" height="512" viewBox="0 0 499.531 499.531" width="512" xmlns="http://www.w3.org/2000/svg"><g><g><g><g><path d="m104.378 286.315h-43.853l-21.926 37.977 21.926 37.978h43.853l21.926-37.978z" fill="#beebfa"/></g></g></g><g><path d="m209.058 85.417h-46.548l-23.274 40.312 23.274 40.311h46.548l23.274-40.311z" fill="#beebfa"/></g><g><path d="m385.965 324.292h-65.311l-32.655 56.561 32.655 56.561h65.311l32.656-56.561z" fill="#9ee2f8"/></g><g><g><g><path d="m435.715 186.148h30v30h-30z" fill="#9ee2f8"/></g></g></g><g><g><g><path d="m338.31 67.653h30v30h-30z" fill="#9ee2f8"/></g></g></g><g><path d="m177.242 458.03h30v30h-30z" fill="#beebfa"/></g><g><g><g><path d="m118.316 427.414h30v30h-30z" fill="#beebfa"/></g></g></g><g><path d="m201.428 267.229h30v30h-30z" fill="#beebfa"/></g><g><path d="m71.949 0h30v84.233h-30z" fill="#beebfa"/></g><g><path d="m10.582 415.298h30v84.233h-30z" fill="#beebfa"/></g><g><g><g><path d="m297.582 150.324h30v84.234h-30z" fill="#9ee2f8"/></g></g></g><g><g><g><path d="m.949 57.525h30v51.497h-30z" fill="#beebfa"/></g></g></g><g><path d="m468.582 10.525h30v51.497h-30z" fill="#9ee2f8"/></g><g><g><g><path d="m357.582 207.4h30v51.496h-30z" fill="#9ee2f8"/></g></g></g><g><path d="m429.582 447.281h30v51.497h-30z" fill="#9ee2f8"/></g><g><g><g><path d="m.949 153.651h30v79.497h-30z" fill="#beebfa"/></g></g></g></g></svg>