<?xml version="1.0" encoding="iso-8859-1"?>
<!-- Generator: Adobe Illustrator 19.0.0, SVG Export Plug-In . SVG Version: 6.00 Build 0)  -->
<svg version="1.1" id="Capa_1" xmlns="http://www.w3.org/2000/svg" xmlns:xlink="http://www.w3.org/1999/xlink" x="0px" y="0px"
	 viewBox="0 0 509.566 509.566" style="enable-background:new 0 0 509.566 509.566;" xml:space="preserve">
<path style="fill:#A4C4E7;" d="M383.858,254.78l50.687-87.782c2.859-4.953,2.859-11.047,0-16s-8.141-8-13.859-8H319.327
	l-50.672-87.774c-5.718-9.906-22-9.906-27.718,0l-50.672,87.774H88.905c-5.718,0-11,3.047-13.859,8s-2.859,11.047,0,16
	l50.687,87.782l-50.687,87.774c-2.859,4.953-2.859,11.047,0,16s8.141,8,13.859,8h101.359l50.672,87.774
	c2.859,4.953,8.141,8,13.859,8c5.718,0,11-3.047,13.859-8l50.672-87.774h101.359c5.718,0,11-3.047,13.859-8s2.859-11.047,0-16
	L383.858,254.78z M356.139,238.795h-73.633l36.828-63.797h73.633L356.139,238.795z M254.796,95.224l36.82,63.774l-36.82,63.786
	l-36.82-63.786L254.796,95.224z M116.624,174.998h73.633l36.824,63.793l-73.637-0.01L116.624,174.998z M153.444,270.78l73.637,0.01
	l-36.82,63.762h-73.637L153.444,270.78z M254.796,414.326l-36.82-63.773l36.82-63.758l36.82,63.758L254.796,414.326z
	 M319.33,334.552l-36.817-63.758h73.645l36.809,63.758H319.33z"/>
<g>
	<circle style="fill:#70A9DC;" cx="139.881" cy="55.679" r="24.888"/>
	<ellipse style="fill:#70A9DC;" cx="24.884" cy="254.759" rx="24.879" ry="24.879"/>
	<ellipse style="fill:#70A9DC;" cx="139.821" cy="453.874" rx="24.879" ry="24.879"/>
	<circle style="fill:#70A9DC;" cx="369.729" cy="453.887" r="24.888"/>
	<ellipse style="fill:#70A9DC;" cx="484.682" cy="254.815" rx="24.879" ry="24.879"/>
	<ellipse style="fill:#70A9DC;" cx="369.798" cy="55.705" rx="24.879" ry="24.879"/>
</g>
<g>
</g>
<g>
</g>
<g>
</g>
<g>
</g>
<g>
</g>
<g>
</g>
<g>
</g>
<g>
</g>
<g>
</g>
<g>
</g>
<g>
</g>
<g>
</g>
<g>
</g>
<g>
</g>
<g>
</g>
</svg>
