<svg viewBox="0 0 40 40" fill="currentColor" xmlns="http://www.w3.org/2000/svg">
<path d="M20.6457 27.7953V15.4803H19.3543V27.7953C17.1732 28.1102 15.4803 29.9921 15.4803 32.2598C15.4803 34.748 17.5039 36.7795 20 36.7795C22.4882 36.7795 24.5197 34.7559 24.5197 32.2598C24.5197 29.9843 22.8268 28.1102 20.6457 27.7953ZM20 35.4803C18.2205 35.4803 16.7717 34.0315 16.7717 32.252C16.7717 30.4724 18.2205 29.0236 20 29.0236C21.7795 29.0236 23.2283 30.4724 23.2283 32.252C23.2283 34.0394 21.7795 35.4803 20 35.4803Z" fill="#FFF"/>
<path d="M23.2283 25.2283V3.22835C23.2283 1.44882 21.7795 0 20 0C18.2205 0 16.7717 1.44882 16.7717 3.22835V25.2283C14.0157 26.4882 12.252 29.2047 12.252 32.2598C12.252 36.5276 15.7244 40 19.9921 40C24.2598 40 27.7323 36.5276 27.7323 32.2598C27.7402 29.1969 25.9843 26.4882 23.2283 25.2283ZM20 38.7087C16.4409 38.7087 13.5512 35.811 13.5512 32.2598C13.5512 27.4567 18.0709 26.0945 18.0709 26.0945V3.22835C18.0709 2.15748 18.937 1.29134 20.0079 1.29134C21.0787 1.29134 21.9449 2.15748 21.9449 3.22835V26.0945C21.9449 26.0945 26.4646 27.4567 26.4646 32.2598C26.4488 35.8189 23.5591 38.7087 20 38.7087Z" fill="#FFF"/>
<path d="M27.748 1.93701H24.5197V3.22835H27.748V1.93701Z" fill="#FFF"/>
<path d="M26.4567 4.51968H24.5197V5.81102H26.4567V4.51968Z" fill="#FFF"/>
<path d="M27.748 7.09448H24.5197V8.38582H27.748V7.09448Z" fill="#FFF"/>
<path d="M26.4567 9.67719H24.5197V10.9685H26.4567V9.67719Z" fill="#FFF"/>
<path d="M27.748 12.2599H24.5197V13.5512H27.748V12.2599Z" fill="#FFF"/>
<path d="M26.4567 14.8425H24.5197V16.1339H26.4567V14.8425Z" fill="#FFF"/>
<path d="M27.748 17.4173H24.5197V18.7087H27.748V17.4173Z" fill="#FFF"/>
<path d="M26.4567 20H24.5197V21.2913H26.4567V20Z" fill="#FFF"/>
<path d="M27.748 22.5827H24.5197V23.874H27.748V22.5827Z" fill="#FFF"/>
</svg>
