<svg viewBox="0 0 40 40" fill="currentColor" xmlns="http://www.w3.org/2000/svg">
<path d="M6.89765 25.9449H5.62206C5.62206 31.5827 10.2047 36.1654 15.8425 36.1654V34.8898C10.9134 34.8898 6.89765 30.874 6.89765 25.9449Z"/>
<path d="M27.3386 0C27.3386 0 24.063 4.12598 21.4331 8.20472C18.8189 4.40157 15.8346 0.637795 15.8346 0.637795C15.8346 0.637795 1.7874 18.4016 1.7874 25.9449C1.7874 33.6929 8.09448 40 15.8425 40C22.1024 40 27.4094 35.8898 29.2283 30.2283C34.3779 29.3228 38.2126 24.811 38.2126 19.5433C38.2126 13.7323 27.3386 0 27.3386 0ZM15.8425 38.7244C8.79527 38.7244 3.06299 32.9921 3.06299 25.9449C3.06299 19.6378 13.4252 5.84252 15.8425 2.70866C18.2598 5.84252 28.622 19.6378 28.622 25.9449C28.622 32.9921 22.8898 38.7244 15.8425 38.7244ZM29.5905 28.8583C29.7874 27.9213 29.8976 26.9449 29.8976 25.9449C29.8976 21.748 25.8819 14.8189 22.2205 9.3622C24.2362 6.1811 26.3937 3.30709 27.3386 2.07087C29.3779 4.72441 36.9291 14.8819 36.9291 19.5512C36.937 23.9921 33.8425 27.8346 29.5905 28.8583Z"/>
</svg>
