<?xml version="1.0" encoding="iso-8859-1"?>
<!-- Generator: Adobe Illustrator 19.0.0, SVG Export Plug-In . SVG Version: 6.00 Build 0)  -->
<svg version="1.1" id="Capa_1" xmlns="http://www.w3.org/2000/svg" xmlns:xlink="http://www.w3.org/1999/xlink" x="0px" y="0px"
	 viewBox="0 0 464 464" style="enable-background:new 0 0 464 464;" xml:space="preserve">
<path style="fill:#F3F3F3;" d="M368,120c-5.588,0-11.031,0.578-16.355,1.494C329.727,82.435,287.977,56,240,56
	s-89.727,26.435-111.645,65.494C123.031,120.578,117.588,120,112,120c-53.019,0-96,42.981-96,96s42.981,96,96,96h256
	c53.019,0,96-42.981,96-96S421.019,120,368,120z"/>
<path style="fill:#E1E1E1;" d="M368,120c-5.586,0-10.992,0.645-16.313,1.567C362.038,140.045,368,161.314,368,184
	c0,70.692-57.309,128-128,128h128c53.019,0,96-42.981,96-96S421.019,120,368,120z"/>
<g>
	<path style="fill:#B7CEEB;" d="M93.422,408c-35.297,0-64-28.711-64-64c0-8.836,7.156-16,16-16s16,7.164,16,16
		c0,17.649,14.359,32,32,32s32-14.351,32-32s-14.359-32-32-32H16c-8.844,0-16-7.164-16-16s7.156-16,16-16h77.422
		c35.297,0,64,28.711,64,64S128.718,408,93.422,408z"/>
	<path style="fill:#B7CEEB;" d="M240,248H16c-8.844,0-16-7.164-16-16s7.156-16,16-16h224c17.641,0,32-14.351,32-32s-14.359-32-32-32
		s-32,14.351-32,32c0,8.836-7.156,16-16,16s-16-7.164-16-16c0-35.289,28.703-64,64-64s64,28.711,64,64S275.297,248,240,248z"/>
	<path style="fill:#B7CEEB;" d="M93.422,184H16c-8.844,0-16-7.164-16-16s7.156-16,16-16h77.422c17.641,0,32-14.351,32-32
		s-14.359-32-32-32s-32,14.351-32,32c0,8.836-7.156,16-16,16s-16-7.164-16-16c0-35.289,28.703-64,64-64s64,28.711,64,64
		S128.718,184,93.422,184z"/>
</g>
<g>
</g>
<g>
</g>
<g>
</g>
<g>
</g>
<g>
</g>
<g>
</g>
<g>
</g>
<g>
</g>
<g>
</g>
<g>
</g>
<g>
</g>
<g>
</g>
<g>
</g>
<g>
</g>
<g>
</g>
</svg>
