<svg viewBox="0 0 40 40" fill="currentColor" xmlns="http://www.w3.org/2000/svg">
<path d="M38.3468 6.29413L16.7684 3.1294V4.78261L12.2496 7.29393V2.5862C12.2574 1.16128 11.1002 0.00402832 9.67526 0.00402832C8.25034 0.00402832 7.09309 1.16128 7.09309 2.5862V38.7051H0V39.9961H19.3505V38.7051H12.2574V14.6468L16.7762 17.1581V18.8113L38.3625 15.6466C39.3072 15.497 40 14.694 40 13.7336V8.19926C39.9921 7.2467 39.3072 6.43583 38.3468 6.29413ZM10.9663 38.7051H8.38418V2.5862C8.38418 1.87767 8.95887 1.29511 9.67526 1.29511C10.3838 1.29511 10.9663 1.8698 10.9663 2.5862V38.7051ZM16.7684 15.6781L12.2574 13.1668V8.76608L16.7684 6.26264V15.6781ZM23.8614 16.4654L18.0594 17.3156V4.61729L23.8614 5.46752V16.4654ZM32.2535 15.2372L25.1604 16.2764V5.66433L32.2535 6.7035V15.2372V15.2372ZM38.1578 14.3713L33.5367 15.0483V6.89243L38.15 7.56947C38.4649 7.6167 38.6932 7.88437 38.6932 8.20714V13.7336H38.701C38.701 14.0564 38.4727 14.324 38.1578 14.3713Z"/>
</svg>